<?xml version="1.0" encoding="utf-8"?>
<!-- Generator: Adobe Illustrator 16.0.0, SVG Export Plug-In . SVG Version: 6.00 Build 0)  -->
<!DOCTYPE svg PUBLIC "-//W3C//DTD SVG 1.1//EN" "http://www.w3.org/Graphics/SVG/1.1/DTD/svg11.dtd">
<svg version="1.1" xmlns="http://www.w3.org/2000/svg" xmlns:xlink="http://www.w3.org/1999/xlink" x="0px" y="0px" width="300px"
	 height="300px" viewBox="0 0 300 300" enable-background="new 0 0 300 300" xml:space="preserve">
<g id="Layer_1">
	<polygon fill="#233D87" points="212.113,299.911 87.519,300.091 -0.707,212.362 -0.884,88.12 87.093,0.144 211.687,-0.033 
		299.912,87.695 300.09,211.936 	"/>
	<circle fill="none" cx="154.999" cy="150" r="130.613"/>
	<text transform="matrix(0.9453 -0.3261 0.3261 0.9453 276.793 102.5806)" display="none" writing-mode="tb"><tspan x="0" y="0" display="inline" font-family="'Myriad-Roman'" font-size="10.449" glyph-orientation-vertical="0">E</tspan><tspan x="0.004" y="10.372" display="inline" font-family="'Myriad-Roman'" font-size="10.449" glyph-orientation-vertical="0" rotate="4.514">D</tspan><tspan x="-0.81" y="20.715" display="inline" font-family="'Myriad-Roman'" font-size="10.449" glyph-orientation-vertical="0" rotate="9.073">I</tspan><tspan x="-2.444" y="30.965" display="inline" font-family="'Myriad-Roman'" font-size="10.449" glyph-orientation-vertical="0" rotate="13.655">Y</tspan><tspan x="-4.891" y="41.049" display="inline" font-family="'Myriad-Roman'" font-size="10.449" glyph-orientation-vertical="0" rotate="18.24">A</tspan><tspan x="-11.523" y="49.624" display="inline" font-family="'Myriad-Roman'" font-size="10.449" glyph-orientation-vertical="1" rotate="21.012"> </tspan><tspan x="-8.917" y="52.938" display="inline" font-family="'Myriad-Roman'" font-size="10.449" glyph-orientation-vertical="0" rotate="23.778">C</tspan><tspan x="-13.096" y="62.435" display="inline" font-family="'Myriad-Roman'" font-size="10.449" glyph-orientation-vertical="0" rotate="28.337">O</tspan><tspan x="-18.023" y="71.573" display="inline" font-family="'Myriad-Roman'" font-size="10.449" glyph-orientation-vertical="0" rotate="32.884">F</tspan><tspan x="-23.655" y="80.291" display="inline" font-family="'Myriad-Roman'" font-size="10.449" glyph-orientation-vertical="0" rotate="37.416">F</tspan><tspan x="-29.95" y="88.526" display="inline" font-family="'Myriad-Roman'" font-size="10.449" glyph-orientation-vertical="0" rotate="41.934">E</tspan><tspan x="-36.891" y="96.253" display="inline" font-family="'Myriad-Roman'" font-size="10.449" glyph-orientation-vertical="0" rotate="46.461">E</tspan></text>
	<text transform="matrix(0.98 0 0 1 80 143.6377)"><tspan x="0" y="0" fill="#FFFFFF" font-family="'TitilliumWeb-SemiBold'" font-size="30">EDIYA </tspan><tspan x="0" y="33" fill="#FFFFFF" font-family="'TitilliumWeb-SemiBold'" font-size="30">COFFEE</tspan></text>
	<path display="none" fill-rule="evenodd" clip-rule="evenodd" fill="#75BBFF" d="M-2.271,149.284c0-17.949,0.136-35.9-0.083-53.847
		c-0.066-5.345,1.437-9.451,5.285-13.258C28.426,56.948,53.815,31.605,79.107,6.169c4.178-4.201,8.732-6.184,14.689-6.163
		C131.626,0.141,169.458,0.129,207.289,0c5.097-0.018,8.871,1.747,12.415,5.311c26.1,26.229,52.285,52.372,78.551,78.433
		c3.405,3.38,4.783,7.084,4.772,11.802c-0.091,36.175-0.096,72.35,0.023,108.522c0.016,5.041-1.526,8.912-5.139,12.492
		c-26.065,25.869-52.014,51.855-77.941,77.869c-3.237,3.246-6.56,5.609-11.474,5.57c-39.166-0.309-78.332-0.551-117.498-0.613
		c-4.272-0.006-7.179-1.467-10.103-4.418c-26.23-26.455-52.54-52.838-78.974-79.09c-3.271-3.248-4.304-6.732-4.282-11.094
		c0.101-18.498,0.043-37,0.043-55.501C-2.301,149.284-2.288,149.284-2.271,149.284z M118.931,67.04
		c-0.547-23.208,4.567-20.429-22.436-20.571c-4.923-0.025-6.626,2.279-6.934,7.061c-1.126,17.552-1.254,17.742-18.242,17.979
		c-5.899,0.082-8.33,1.866-8.398,8.1c-0.181,16.259-0.426,16.257-16.832,16.901c-0.276,0.011-0.552,0.029-0.828,0.012
		c-4.715-0.286-7.151,1.523-7.139,6.656c0.014,4.866,1.1,8.04,6.8,7.962c10.208-0.138,20.419-0.124,30.626-0.007
		c5.064,0.058,6.894-2.477,6.688-7.19c-0.096-2.201,0.27-4.442,0.011-6.616c-0.884-7.456,2.72-10.034,9.665-9.374
		c1.915,0.182,3.86,0.058,5.792,0.032C122.008,87.653,118.619,91.219,118.931,67.04z M238.695,111.178c0-0.035,0-0.071,0-0.106
		c5.516,0,11.031,0.01,16.544-0.004c4.139-0.009,5.532-2.202,5.942-6.22c0.875-8.555-4.448-8.43-10.411-8.417
		c-14.33,0.032-14.697-0.089-14.282-14.446c0.224-7.748-2.02-11.55-10.209-10.42c-1.895,0.263-3.855,0.057-5.786,0.051
		c-11.733-0.038-11.812-0.1-11.869-12.142c-0.054-11.645,1.407-15.892-14.167-13.109c-2.144,0.383-4.409,0.209-6.609,0.109
		c-5.245-0.239-7.53,2.214-7.457,7.43c0.126,8.823,0.197,17.653-0.026,26.472c-0.147,5.868,2.726,7.755,8.119,7.627
		c6.89-0.163,13.788,0.111,20.68-0.033c5.417-0.113,8.166,1.845,7.976,7.712c-0.551,16.901-1.057,15.419,16.594,15.496
		C235.385,111.186,237.042,111.178,238.695,111.178z M60.129,192.496c0,0.018,0,0.035,0,0.051c-4.956,0-9.914,0.029-14.869-0.01
		c-4.009-0.033-7.114,0.779-7.011,5.828c0.095,4.607,2.993,5.332,6.646,5.318c3.305-0.014,6.665,0.398,9.901-0.068
		c6.824-0.984,8.402,2.088,8.373,8.375c-0.084,17.727,0.142,17.922,17.661,18.244c6.178,0.111,8.824,2.01,8.911,8.6
		c0.237,18.006,0.483,18.002,18.906,17.809c1.102-0.014,2.207-0.088,3.304-0.025c4.864,0.281,7.047-1.941,6.976-6.85
		c-0.128-8.813-0.201-17.629,0.03-26.434c0.153-5.803-2.506-7.805-8.006-7.639c-7.152,0.215-14.317-0.037-21.476,0.02
		c-4.608,0.037-6.933-1.682-7.302-6.713c-1.214-16.545-1.371-16.533-17.915-16.506C62.883,192.498,61.506,192.496,60.129,192.496z
		 M180.383,235.885c0.46,23.52-3.812,20.473,20.399,20.809c5.635,0.076,7.692-2.18,7.926-7.797
		c0.751-18.096,0.921-18.371,18.864-18.43c7.021-0.023,8.915-2.73,8.87-9.344c-0.107-16.678,0.146-16.711,17.213-17.439
		c3.751-0.162,7.344-0.113,7.404-5.389c0.069-5.775-3.876-5.77-7.898-5.775c-9.09-0.012-18.194,0.299-27.264-0.125
		c-7.031-0.33-8.975,2.674-8.916,9.293c0.13,14.039-0.153,14.041-13.854,14.055c-0.824,0.002-1.651-0.012-2.479,0.002
		C177.768,216.088,180.613,212.553,180.383,235.885z M117.388,154.906c0-0.078,0-0.158,0-0.238c-5.78,0-11.591,0.381-17.333-0.092
		c-7.78-0.637-10.812,2.158-10.574,10.242c0.643,21.973-2.37,18.965,18.75,19.137c17.231,0.141,17.442,0.008,19.171,17.129
		c0.673,6.672,5.048,6.064,9.457,6.16c4.429,0.096,8.418-0.24,8.385-6.281c-0.072-13.213-0.058-26.424,0.024-39.633
		c0.027-4.457-1.808-6.566-6.416-6.465C131.7,155.023,124.543,154.906,117.388,154.906z M153.351,180.266
		c0,5.227,0.205,10.467-0.053,15.68c-0.315,6.371-0.04,11.217,8.662,11.475c8.453,0.246,10.21-3.346,10.026-10.809
		c-0.314-12.631,0.031-12.639,12.844-12.627c1.104,0,2.204,0.027,3.304,0.002c23.055-0.49,20.349,4.369,20.434-22.48
		c0.019-4.893-2.164-6.971-7.016-6.877c-7.433,0.143-14.87,0.041-22.307,0.035C153.729,154.641,153.729,154.641,153.351,180.266z
		 M117.464,147.329c0-0.017,0-0.035,0-0.054c7.166,0,14.332-0.038,21.497,0.017c3.966,0.03,6.283-1.511,6.269-5.784
		c-0.041-13.228-0.017-26.456-0.072-39.683c-0.01-2.349-0.846-4.118-3.399-5.02c-8.909-3.144-14.275,0.534-14.322,9.995
		c-0.01,1.931-0.183,3.886,0.068,5.784c0.738,5.555-1.819,7.314-7.088,7.144c-7.983-0.259-15.987,0.118-23.974-0.08
		c-8.03-0.198-7.57,5.709-6.586,10.251c1.288,5.938-5.744,15.18,6.113,17.369c0.802,0.149,1.65,0.058,2.478,0.058
		C104.786,147.33,111.125,147.329,117.464,147.329z M181.415,147.283c0,0.015,0,0.028,0,0.041c5.792,0,11.626-0.42,17.371,0.103
		c7.84,0.716,10.466-1.802,10.089-10.107c-0.89-19.524,1.677-17.598-18.122-17.643c-17.338-0.041-17.584,0.021-18.806-16.755
		c-0.484-6.658-4.542-6.425-9.131-6.445c-4.682-0.021-9.07,0.041-9.034,6.585c0.072,12.413,0.06,24.826-0.029,37.24
		c-0.033,4.825,2.085,7.092,6.973,7.011C167.62,147.197,174.521,147.283,181.415,147.283z M262.499,154.658
		c-1.654,0-3.308-0.021-4.96,0.004c-23.152,0.363-20.418-4.196-20.53,22.408c-0.019,4.922,2.115,7.033,6.967,6.91
		c4.957-0.125,9.943,0.297,14.879-0.063c6.93-0.5,10.639,1.813,9.681,9.307c-0.139,1.084,0.104,2.211,0.013,3.303
		c-0.577,6.996,3.956,7.377,9.093,7.174c4.878-0.191,10.397,1.045,10.267-6.896c-0.195-11.85-0.13-23.703-0.014-35.553
		c0.051-5.092-2.501-6.752-7.203-6.629C274.628,154.781,268.564,154.662,262.499,154.658z M36.768,154.633c0,0.023,0,0.045,0,0.07
		c-6.053,0-12.111,0.139-18.159-0.045c-4.864-0.148-7.02,1.84-6.965,6.797c0.132,11.828,0.067,23.662-0.013,35.494
		c-0.029,4.311,1.583,6.432,6.215,6.799c11.477,0.904,12.819,0.141,12.902-11.535c0.042-6.049,2.292-8.539,8.285-8.273
		c5.492,0.24,11.006-0.064,16.506,0.049c4.955,0.102,7.676-2.434,6.602-7.041c-1.713-7.361,5.332-16.707-4.788-22.064
		c-1.311-0.695-3.252-0.236-4.901-0.242C47.224,154.621,41.997,154.633,36.768,154.633z M37.037,147.307
		c5.511,0,11.048-0.339,16.527,0.085c7.063,0.547,9.521-2.61,8.809-9.235c-0.204-1.906-0.022-3.854-0.027-5.782
		c-0.034-12.703-0.035-12.654-12.687-12.743c-5.492-0.038-11.892,1.389-16.253-0.92c-5.957-3.152-2.014-10.497-2.412-15.939
		c-0.496-6.776-4.814-6.376-9.271-6.259c-4.464,0.118-10.059-1.327-10.055,6.177c0.006,12.675,0.095,25.351-0.025,38.025
		c-0.048,5.121,2.532,6.735,7.208,6.623C24.91,147.192,30.975,147.302,37.037,147.307z M263.005,147.297
		c5.79,0,11.585-0.15,17.369,0.044c5.152,0.173,7.63-1.794,7.555-7.202c-0.166-12.13-0.028-24.265-0.082-36.397
		c-0.011-2.432,0.168-4.985-2.496-6.533c-7.839-4.558-16.722,0.375-16.829,9.395c-0.155,13.004-0.157,12.892-13.435,13.07
		c-20.252,0.271-17.938-3.382-18.082,19.713c-0.035,5.549,2.093,8.155,7.802,7.958C250.865,147.138,256.938,147.3,263.005,147.297z
		 M116.874,37.954c0,0.008,0,0.017,0,0.026c4.671,0,9.343,0,14.014,0c15.071,0,16-1.191,14.418-16.669
		c-0.413-4.029-1.995-6.034-6.096-6.027c-14.287,0.025-28.576-0.004-42.864-0.004c-4.339-0.001-6.649,2.086-6.654,6.527
		c-0.002,3.024,0.11,6.056-0.084,9.066c-0.353,5.467,2.378,7.279,7.483,7.127C103.68,37.804,110.279,37.954,116.874,37.954z
		 M181.944,37.937c6.618,0,13.238-0.069,19.855,0.024c4.382,0.063,6.779-1.752,6.75-6.309c-0.023-3.311-0.034-6.618-0.005-9.928
		c0.033-4.476-2.194-6.493-6.628-6.479c-13.79,0.041-27.581,0.061-41.369-0.036c-5.024-0.034-6.899,2.517-6.775,7.199
		c0.075,2.756,0.096,5.52-0.021,8.272c-0.225,5.297,2.303,7.453,7.509,7.316C168.15,37.814,175.048,37.952,181.944,37.937z
		 M117.735,263.967c0,0.051,0,0.104,0,0.156c-7.178,0-14.363,0.195-21.534-0.055c-7.454-0.258-6.676,4.814-6.544,9.502
		c0.143,5.043-1.456,11.27,6.92,11.277c14.082,0.014,28.165,0.029,42.248,0.002c8.833-0.018,6.042-6.779,6.391-11.467
		c0.36-4.814,0.52-9.727-6.773-9.471C131.548,264.156,124.638,263.967,117.735,263.967z M180.448,284.859
		c6.883,0,13.774-0.211,20.649,0.055c8.226,0.316,7.485-5.287,7.531-10.611c0.049-5.459,0.38-10.629-7.738-10.416
		c-13.208,0.342-26.436,0.34-39.645,0.039c-8.299-0.189-7.472,5.301-7.52,10.586c-0.049,5.436-0.39,10.834,7.728,10.434
		C167.771,284.633,174.115,284.881,180.448,284.859z M171.866,67.811c-0.012,0-0.023,0-0.035,0c0-4.95-0.05-9.902,0.012-14.851
		c0.085-6.853-4.591-7.294-9.568-6.996c-4.824,0.289-9.376,0.692-8.854,7.798c0.583,7.938,0.531,15.95,0.238,23.912
		c-0.258,6.997,1.526,10.589,9.617,10.512c8.077-0.077,9.027-4.208,8.628-10.476C171.693,74.422,171.866,71.11,171.866,67.811z
		 M145.279,66.709c-0.016,0-0.031,0-0.044,0c0-4.687,0.076-9.375-0.02-14.061c-0.162-8.081-6.505-5.601-10.966-6.319
		c-5.178-0.835-6.915,1.711-6.837,6.558c0.139,8.547,0.267,17.105-0.052,25.641c-0.239,6.382,1.496,9.576,8.726,9.654
		c7.5,0.081,9.864-2.959,9.254-9.896C145.002,74.455,145.279,70.57,145.279,66.709z M153.741,237.25c-0.088,0-0.176,0-0.264,0
		c0,3.857,0.249,7.734-0.058,11.568c-0.461,5.754,1.98,8.162,7.662,7.834c5.062-0.291,11.078,1.393,10.817-7.168
		c-0.242-7.986-0.317-16.002,0.083-23.979c0.341-6.818-1.56-10-9.186-9.967c-7.688,0.029-9.572,3.473-9.104,10.133
		C153.962,229.512,153.741,233.389,153.741,237.25z M145.29,236.43c-0.031,0-0.06,0-0.091,0c0-4.965,0.019-9.934-0.004-14.898
		c-0.03-6.332-4.682-5.746-8.811-5.76c-4.164-0.018-8.815-0.479-8.853,5.766c-0.061,9.932-0.022,19.863,0.038,29.795
		c0.019,3.297,1.781,4.758,5.093,5.258c10.159,1.539,12.529-0.266,12.623-10.225C145.314,243.051,145.29,239.742,145.29,236.43z
		 M104.482,192.563c0-0.016,0-0.029,0-0.045c-2.192,0-4.388,0.09-6.574-0.02c-5.023-0.248-8.352,0.795-8.399,7.066
		c-0.051,6.484,3.13,7.996,8.679,7.752c4.922-0.219,9.859-0.111,14.789-0.135c5.435-0.023,5.897-3.666,5.917-7.857
		c0.02-4.287-1.588-6.818-6.194-6.768C109.961,192.588,107.221,192.563,104.482,192.563z M104.685,96.545c0-0.016,0-0.031,0-0.045
		c-2.187,0-4.378,0.084-6.561-0.018c-4.867-0.227-8.513,0.41-8.588,6.81c-0.073,6.284,2.744,8.208,8.476,7.912
		c4.909-0.253,9.838-0.107,14.758-0.12c5.263-0.012,6.141-3.375,6.139-7.69c-0.002-4.182-1.298-6.933-6.024-6.857
		C110.152,96.581,107.418,96.545,104.685,96.545z M194.104,207.182c2.74,0,5.496,0.188,8.217-0.037
		c5.772-0.479,8.398-4.844,6.654-10.344c-1.312-4.135-4.594-4.633-7.886-4.158c-6.716,0.967-14.222-3.096-20.098,3.021
		c-0.474,0.494-0.36,1.568-0.477,2.379C179.381,205.934,181.389,207.297,194.104,207.182z M194.033,111.129
		c2.209,0,4.424-0.121,6.622,0.022c7,0.456,8.642-3.544,7.769-9.415c-1.165-7.829-7.588-5.425-11.82-4.998
		c-5.504,0.554-13.571-4.401-15.957,4.96C178.682,109.414,181.476,111.149,194.033,111.129z M217.154,168.92
		c0,3.014,0.034,6.027-0.007,9.039c-0.055,4.115,1.959,5.93,6.047,5.945c3.874,0.016,6.416-1.207,6.407-5.539
		c-0.014-6.025,0.02-12.053-0.062-18.078c-0.058-4.221-2.619-5.547-6.493-5.59c-4.214-0.047-5.993,1.953-5.912,6.004
		C217.189,163.439,217.145,166.182,217.154,168.92z M82.195,169.648c0.019,0,0.038,0,0.056,0c0-2.475-0.064-4.949,0.014-7.422
		c0.131-4.205-0.199-7.494-5.972-7.453c-5.302,0.033-6.681,2.553-6.601,7.117c0.091,5.219,0.095,10.441,0.006,15.662
		c-0.076,4.518,2.018,6.443,6.521,6.379c4.166-0.061,6.042-1.971,5.984-6.041C82.165,175.143,82.195,172.395,82.195,169.648z
		 M82.198,133.988c0-2.748-0.043-5.496,0.01-8.242c0.081-4.088-1.811-6.052-5.962-6.053c-3.838,0-6.473,1.158-6.476,5.529
		c-0.004,5.495,0.011,10.991-0.016,16.486c-0.021,4.338,2.445,5.596,6.37,5.591c4.097-0.005,6.165-1.724,6.084-5.892
		C82.16,138.937,82.199,136.461,82.198,133.988z M217.229,133.535c-0.034,0.001-0.069,0.001-0.103,0.001
		c0,2.19,0.031,4.381-0.007,6.571c-0.066,3.912,0.52,7.061,5.61,7.142c4.954,0.078,6.974-2.178,6.886-6.938
		c-0.091-5.201,0.03-10.405-0.043-15.607c-0.054-3.962-2.607-4.996-6.061-4.974c-3.335,0.021-6.107,0.737-6.26,4.772
		C217.139,127.509,217.229,130.523,217.229,133.535z M72.944,238.99c-6.803-1.078-10.221,1.029-10.104,8.725
		c0.103,6.734,2.244,9.346,9.108,9.076c6.021-0.234,10.737-0.109,10.493-8.498C82.239,241.336,80.446,237.641,72.944,238.99z
		 M55.538,221.396c0.667-6.143,0.24-10.678-8.122-10.609c-7.229,0.059-9.64,2.393-9.454,9.533
		c0.167,6.398,0.948,10.422,8.882,10.174C53.512,230.287,56.78,228.305,55.538,221.396z M243.819,220.324
		c-1.069,6.684,0.772,10.141,8.526,10.201c7.784,0.061,9.053-3.498,8.966-10.055c-0.077-6.057-0.874-9.805-8.405-9.68
		C245.856,210.904,242.43,212.99,243.819,220.324z M226.836,256.439c6.968,1.391,9.543-1.664,9.644-8.994
		c0.101-7.348-3.219-8.877-9.567-8.74c-5.891,0.123-10.129,0.59-9.989,8.35C217.049,254.045,219.038,257.725,226.836,256.439z
		 M225.966,62.979c6.795,1.024,11.313-0.689,10.402-9.034c-0.455-4.143,0.339-8.419-6.227-8.205
		c-11.768,0.386-12.801,1.366-13.175,10.591C216.67,63.632,220.661,63.759,225.966,62.979z M73.378,46.563
		c-6.053-1.046-10.417-0.894-10.502,7.149c-0.075,7.204,2.367,10.029,9.506,9.486c5-0.381,10.481,1.588,10.112-7.25
		C82.205,49.015,81.469,44.477,73.378,46.563z M251.721,87.851c5.829,0.6,9.583-0.55,9.581-7.744c0-6.529-2.356-8.838-8.742-8.628
		c-5.3,0.174-9.123,0.666-9.012,7.481C243.643,84.864,244.747,88.906,251.721,87.851z M47.664,71.722
		c-5.656-0.586-9.697,0.171-9.637,7.43c0.052,6.07,1.634,9.167,8.306,8.918c5.442-0.201,9.618-0.474,9.487-7.734
		C55.711,74.368,54.441,70.615,47.664,71.722z"/>
	<rect x="77.5" y="77.5" fill="none" stroke="#FFFFFF" stroke-width="3" stroke-miterlimit="10" width="144" height="144"/>
	<rect x="47" y="47" fill="none" stroke="#FFFFFF" stroke-width="2" stroke-miterlimit="10" width="205" height="205"/>
</g>
<g id="Layer_2">
	<rect x="168" y="188" fill="none" stroke="#FFFFFF" stroke-width="2" stroke-miterlimit="10" width="83" height="64"/>
	<rect x="47" y="48" fill="none" stroke="#FFFFFF" stroke-width="2" stroke-miterlimit="10" width="83" height="64"/>
	<rect x="168" y="48" fill="none" stroke="#FFFFFF" stroke-width="2" stroke-miterlimit="10" width="83" height="64"/>
	<rect x="47" y="222" fill="none" stroke="#FFFFFF" stroke-width="2" stroke-miterlimit="10" width="30" height="30"/>
</g>
</svg>
